<svg xmlns="http://www.w3.org/2000/svg" viewBox="0 0 779.26 239.59"><defs><style>.cls-1{fill:#fff;}.cls-2{fill:#14b8a6;}</style></defs><g id="Layer_2" data-name="Layer 2"><g id="Layer_1-2" data-name="Layer 1"><path class="cls-1" d="M14.72,175.48c51.17-21.37,127,48.16,152,0C180.27,149,159.5,89.09,34,138.16-7.55,114.38-20.79,50,51.14,22.57A671.67,671.67,0,0,1,161,31.6l2.71,57.49C133.62,61.4,20.44,18.36,6.3,67.12-1.53,94.21,43.92,87,86.06,96.32c77.36,17.46,92.71,43.94,88.19,75-3.91,25.28-20.17,55.68-50.87,68-19.26-7.52-86.68-32.81-106.25-15.95Z"/><path class="cls-1" d="M202.54,236.28,189.9,0h48.46C223.61,75.55,219.7,151.1,220.3,232.67h3.62c3.61-74,25-143.28,47-149.9,36.72,0,66.52,31.61,66.52,78.26,0,27.69-14.15,75.25-14.15,75.25H270.87s13.24-29.8,26.19-65.92c13.24-37.92,16.55-71,.6-77.35-21.37-8.43-62,35.51-70.13,143.27Z"/><path class="cls-1" d="M458.69,105.05c-4.21,71-34,129.73-50.26,134.54-28.6,0-58.4-20.17-58.4-53.27,0-31,24.08-47.26,49.37-48.46,17.16-.91,34.91,5.41,46.05,18.06a217.31,217.31,0,0,0,9.63-51.17c-53.88-.61-93.31,33.71-93.31,33.71l-2.1-43.65s20.77-12,57.49-12c37,0,63.51,28,66.22,76.76,2.1,42.44,4.21,76.75,4.21,76.75H439.43s22.27-51.17,22.27-131.23Zm-14.44,54.78c-40.64-47-80.37,62.6-61.41,70.43C397,236,427.39,207.69,444.25,159.83Z"/><path class="cls-1" d="M648.33,203.77c0,9.33-2.41,21.37-5.12,32.51h-53c34-40,34-82.17,17.45-87.59-17.76-6-51.17,23.48-63.81,87.59h-31.3L499.94,0H548.4c-14.75,75.55-18.66,151.1-18.06,232.67h3c3.91-74,22.27-143.58,44.24-150.2,34.92,0,58.4,5.12,58.4,5.12l2.4,40.33S620,119.8,602.27,119.8c-21.36,0-56,9.63-64.71,112.87h3v1.5c6.92-47.85,24.38-89.09,42.44-93.61C619.13,140.56,648.33,166.15,648.33,203.77Z"/><path class="cls-1" d="M701.91,85.78,710,236.28H661.57s22.58-52.67,22.58-150.5Z"/><path class="cls-2" d="M706.42,47c0,12.64-8.13,21.06-18.06,21.06C678.13,68,670.3,59.6,670.3,47c0-13,7.83-21.68,18.06-21.68C698.29,25.28,706.42,34,706.42,47Z"/><path class="cls-1" d="M779.26,0C764.51,76.45,760.6,153.21,761.2,236.28H743.44L730.8,0Z"/></g></g></svg>